<?xml version="1.0" encoding="iso-8859-1"?>
<!-- Generator: Adobe Illustrator 17.1.0, SVG Export Plug-In . SVG Version: 6.00 Build 0)  -->
<!DOCTYPE svg PUBLIC "-//W3C//DTD SVG 1.1//EN" "http://www.w3.org/Graphics/SVG/1.1/DTD/svg11.dtd">
<svg xmlns="http://www.w3.org/2000/svg" xmlns:xlink="http://www.w3.org/1999/xlink" version="1.1" id="Capa_1" x="0px" y="0px" viewBox="0 0 407.358 407.358" style="enable-background:new 0 0 407.358 407.358;" xml:space="preserve" width="512px" height="512px">
<path d="M24.699,121.932V58.612c0-5.523,4.477-10,10-10h338.489c5.522,0,10,4.477,10,10v241.778c0,5.523-4.478,10-10,10H252.297  c-5.522,0-10-4.477-10-10s4.478-10,10-10h110.891V68.612H44.699v53.321c0,5.523-4.477,10-10,10S24.699,127.455,24.699,121.932z   M10,165.323h63.625l27.527,43.687c2.011,3.192,5.655,4.975,9.403,4.625c3.756-0.356,6.992-2.795,8.368-6.308l27.537-70.291  l31.476,100.238c1.312,4.179,5.184,7.004,9.538,7.004c0.113,0,0.228-0.002,0.342-0.006c4.491-0.152,8.33-3.282,9.383-7.651  l17.185-71.299h41.764c5.522,0,10-4.477,10-10s-4.478-10-10-10h-49.64c-4.62,0-8.639,3.165-9.722,7.657l-10.577,43.882  l-29.168-92.89c-1.271-4.046-4.956-6.852-9.195-6.998c-4.229-0.131-8.109,2.396-9.657,6.347l-30.668,78.282l-19.917-31.609  c-1.831-2.906-5.025-4.669-8.46-4.669H10c-5.523,0-10,4.477-10,10S4.477,165.323,10,165.323z M397.358,338.746H10.526  c-5.523,0-10,4.477-10,10s4.477,10,10,10h386.832c5.522,0,10-4.477,10-10S402.88,338.746,397.358,338.746z M34.699,179.815  c-5.523,0-10,4.477-10,10v110.575c0,5.523,4.477,10,10,10h120.889c5.523,0,10-4.477,10-10s-4.477-10-10-10H44.699V189.815  C44.699,184.292,40.222,179.815,34.699,179.815z M203.943,289.333c6.106,0,11.056,4.951,11.056,11.056  c0,6.106-4.95,11.057-11.056,11.057c-6.106,0-11.058-4.951-11.058-11.057C192.885,294.284,197.837,289.333,203.943,289.333  L203.943,289.333z" fill="#4fc3f7"/>
<g>
</g>
<g>
</g>
<g>
</g>
<g>
</g>
<g>
</g>
<g>
</g>
<g>
</g>
<g>
</g>
<g>
</g>
<g>
</g>
<g>
</g>
<g>
</g>
<g>
</g>
<g>
</g>
<g>
</g>
</svg>
