<?xml version="1.0" encoding="iso-8859-1"?>
<!-- Generator: Adobe Illustrator 17.1.0, SVG Export Plug-In . SVG Version: 6.00 Build 0)  -->
<!DOCTYPE svg PUBLIC "-//W3C//DTD SVG 1.1//EN" "http://www.w3.org/Graphics/SVG/1.1/DTD/svg11.dtd">
<svg xmlns="http://www.w3.org/2000/svg" xmlns:xlink="http://www.w3.org/1999/xlink" version="1.1" id="Capa_1" x="0px" y="0px" viewBox="0 0 390.18 390.18" style="enable-background:new 0 0 390.18 390.18;" xml:space="preserve" width="512px" height="512px">
<path d="M46.149,10v369.476c0,5.523-4.478,10-10,10s-10-4.477-10-10V10c0-5.523,4.478-10,10-10S46.149,4.477,46.149,10z   M250.223,56.889v118.756c0,5.523-4.478,10-10,10h-17.11c-0.069,0.001-0.138,0.002-0.206,0.002s-0.137,0-0.205-0.002h-83.715  c-0.137,0.003-0.272,0.003-0.411,0h-17.108c-5.522,0-10-4.477-10-10V56.889c0-5.523,4.478-10,10-10h118.756  C245.745,46.889,250.223,51.366,250.223,56.889z M206.65,165.645c-5.072-9.837-10.217-13.512-18.824-13.512h-13.962  c-8.605,0-13.75,3.674-18.824,13.512H206.65z M180.845,115.532c4.099,0,7.433-3.333,7.433-7.43c0-4.099-3.334-7.433-7.433-7.433  s-7.433,3.334-7.433,7.433C173.412,112.199,176.746,115.532,180.845,115.532z M230.223,66.889h-98.756v98.756h1.168l4.291-8.503  c2.871-5.688,11.136-22.062,31.354-24.66c-8.823-4.565-14.867-13.78-14.867-24.379c0-15.126,12.307-27.433,27.433-27.433  s27.433,12.307,27.433,27.433c0,10.6-6.044,19.814-14.867,24.379c20.22,2.598,28.484,18.972,31.354,24.66l4.289,8.503h1.169V66.889z   M364.03,10.705V380.18c0,5.523-4.478,10-10,10H70.544c-5.522,0-10-4.477-10-10V10.705c0-5.523,4.478-10,10-10H354.03  C359.553,0.705,364.03,5.182,364.03,10.705z M285.458,335.253l21.774-15.06v-81.883l-21.774-15.06  c-2.7-1.868-4.312-4.941-4.312-8.225V20.705H80.544V370.18h200.603v-26.702C281.146,340.194,282.758,337.121,285.458,335.253z   M344.03,20.705h-42.884v189.079l21.774,15.06c2.7,1.868,4.312,4.941,4.312,8.225v92.368c0,3.283-1.611,6.357-4.312,8.225  l-21.774,15.06v21.459h42.884V20.705z" fill="#4fc3f7"/>
<g>
</g>
<g>
</g>
<g>
</g>
<g>
</g>
<g>
</g>
<g>
</g>
<g>
</g>
<g>
</g>
<g>
</g>
<g>
</g>
<g>
</g>
<g>
</g>
<g>
</g>
<g>
</g>
<g>
</g>
</svg>
