<?xml version="1.0" encoding="iso-8859-1"?>
<!-- Generator: Adobe Illustrator 18.0.0, SVG Export Plug-In . SVG Version: 6.00 Build 0)  -->
<!DOCTYPE svg PUBLIC "-//W3C//DTD SVG 1.1//EN" "http://www.w3.org/Graphics/SVG/1.1/DTD/svg11.dtd">
<svg xmlns="http://www.w3.org/2000/svg" xmlns:xlink="http://www.w3.org/1999/xlink" version="1.1" id="Capa_1" x="0px" y="0px" viewBox="0 0 432.039 432.039" style="enable-background:new 0 0 432.039 432.039;" xml:space="preserve" width="512px" height="512px">
<g>
	<path d="M314.341,120.04h14.09c18.308,0,33.202-14.895,33.202-33.202V33.203C361.633,14.895,346.739,0,328.431,0H163.516   c-18.308,0-33.202,14.895-33.202,33.203v22.693c-59.209,3.333-106.358,52.55-106.358,112.579c0,12.424,2,24.567,5.942,36.182   c-4.509,4.244-7.332,10.26-7.332,16.926c0,12.824,10.433,23.257,23.257,23.257s23.257-10.433,23.257-23.257   s-10.433-23.257-23.257-23.257c-0.729,0-1.45,0.038-2.163,0.104c-3.107-9.636-4.705-19.68-4.705-29.956   c0-51.754,40.427-94.238,91.358-97.549v15.913c0,18.308,14.895,33.202,33.202,33.202h14.091   c-56.105,25.933-95.133,82.741-95.133,148.5c0,90.153,73.346,163.499,163.5,163.499c90.153,0,163.499-73.346,163.499-163.499   C409.473,202.781,370.445,145.973,314.341,120.04z M54.08,221.583c0,4.553-3.704,8.257-8.257,8.257s-8.257-3.704-8.257-8.257   s3.704-8.257,8.257-8.257S54.08,217.03,54.08,221.583z M163.516,105.04c-10.037,0-18.202-8.165-18.202-18.202V33.203   c0-10.037,8.165-18.203,18.202-18.203h164.915c10.037,0,18.202,8.166,18.202,18.203v53.635c0,10.037-8.165,18.202-18.202,18.202   H163.516z M245.974,417.039c-81.883,0-148.5-66.616-148.5-148.499s66.617-148.5,148.5-148.5s148.499,66.617,148.499,148.5   S327.857,417.039,245.974,417.039z" fill="#4fc3f7"/>
	<path d="M245.974,238.942c-16.32,0-29.598,13.277-29.598,29.598s13.277,29.598,29.598,29.598s29.598-13.277,29.598-29.598   S262.294,238.942,245.974,238.942z M245.974,283.138c-8.049,0-14.598-6.549-14.598-14.598s6.549-14.598,14.598-14.598   s14.598,6.549,14.598,14.598S254.023,283.138,245.974,283.138z" fill="#4fc3f7"/>
	<path d="M272.315,148.202c-8.599-1.874-17.462-2.824-26.341-2.824c-4.143,0-7.5,3.357-7.5,7.5s3.357,7.5,7.5,7.5   c7.808,0,15.595,0.835,23.147,2.48c0.538,0.117,1.074,0.174,1.604,0.174c3.45,0,6.557-2.396,7.321-5.905   C278.928,153.08,276.363,149.084,272.315,148.202z" fill="#4fc3f7"/>
	<path d="M310.81,163.807c-3.519-2.185-8.145-1.101-10.326,2.42c-2.184,3.52-1.101,8.144,2.42,10.326   c32.08,19.899,51.232,54.287,51.232,91.987c0,4.143,3.357,7.5,7.5,7.5s7.5-3.357,7.5-7.5   C369.136,225.613,347.333,186.461,310.81,163.807z" fill="#4fc3f7"/>
	<rect x="167.974" y="71.021" width="156" height="15" fill="#4fc3f7"/>
	<rect x="167.974" y="34.021" width="156" height="15" fill="#4fc3f7"/>
</g>
<g>
</g>
<g>
</g>
<g>
</g>
<g>
</g>
<g>
</g>
<g>
</g>
<g>
</g>
<g>
</g>
<g>
</g>
<g>
</g>
<g>
</g>
<g>
</g>
<g>
</g>
<g>
</g>
<g>
</g>
</svg>
