<svg width="292.359" height="292.359" xmlns="http://www.w3.org/2000/svg">

 <g>
  <title>background</title>
  <rect fill="none" id="canvas_background" height="402" width="582" y="-1" x="-1"/>
 </g>
 <g>
  <title>Layer 1</title>
  <g transform="rotate(-180 146.17950439453125,146.17950439453125) " id="svg_1">
   <path id="svg_2" fill="#5c6770" d="m222.979,133.331l-127.906,-127.907c-3.617,-3.617 -7.895,-5.424 -12.847,-5.424c-4.952,0 -9.233,1.807 -12.85,5.424c-3.617,3.617 -5.424,7.898 -5.424,12.847l0,255.813c0,4.948 1.807,9.232 5.424,12.847c3.621,3.617 7.902,5.428 12.85,5.428c4.949,0 9.23,-1.811 12.847,-5.428l127.906,-127.907c3.614,-3.613 5.428,-7.897 5.428,-12.847c0,-4.948 -1.813,-9.229 -5.428,-12.846z"/>
  </g>
  <g id="svg_3"/>
  <g id="svg_4"/>
  <g id="svg_5"/>
  <g id="svg_6"/>
  <g id="svg_7"/>
  <g id="svg_8"/>
  <g id="svg_9"/>
  <g id="svg_10"/>
  <g id="svg_11"/>
  <g id="svg_12"/>
  <g id="svg_13"/>
  <g id="svg_14"/>
  <g id="svg_15"/>
  <g id="svg_16"/>
  <g id="svg_17"/>
 </g>
</svg>